<?xml version="1.0" encoding="UTF-8" standalone="no"?>
<svg width="36" height="37" viewBox="0 0 42 37" fill="none" xmlns="http://www.w3.org/2000/svg">
<g clip-path="url(#clip0_5849_3514)">
<path fill-rule="evenodd" clip-rule="evenodd" d="M12.9107 19.3518L23.0203 36.8641L18.3743 36.9077L15.6753 32.2028L12.957 36.8825L10.6486 36.8816L9.46625 34.839L13.339 28.1799L10.5898 23.3959L12.9107 19.3518Z" fill="#5277C3"></path>
<path fill-rule="evenodd" clip-rule="evenodd" d="M16.5598 12.1379L6.44851 29.6492L4.08777 25.6475L6.81283 20.9576L1.4009 20.9434L0.247498 18.9438L1.4253 16.8986L9.12862 16.9229L11.8971 12.1501L16.5598 12.1379Z" fill="#7EBAE4"></path>
<path fill-rule="evenodd" clip-rule="evenodd" d="M17.3354 26.136L37.5563 26.137L35.271 30.1823L29.847 30.1673L32.5406 34.8612L31.3856 36.8599L29.0255 36.8626L25.1949 30.1791L19.6772 30.168L17.3354 26.136Z" fill="#7EBAE4"></path>
<path fill-rule="evenodd" clip-rule="evenodd" d="M29.1051 18.4634L18.9955 0.951053L23.6415 0.907471L26.3405 5.61237L29.0588 0.932612L31.3672 0.933521L32.5496 2.97614L28.6768 9.63525L31.426 14.4193L29.1051 18.4634Z" fill="#7EBAE4"></path>
<path fill-rule="evenodd" clip-rule="evenodd" d="M12.9107 19.3518L23.0203 36.8641L18.3743 36.9077L15.6753 32.2028L12.957 36.8825L10.6486 36.8816L9.46625 34.839L13.339 28.1799L10.5898 23.3959L12.9107 19.3518Z" fill="#5277C3"></path>
<path fill-rule="evenodd" clip-rule="evenodd" d="M24.653 11.634L4.43207 11.633L6.71732 7.5877L12.1414 7.60273L9.44774 2.90876L10.6028 0.910076L12.9629 0.907471L16.7935 7.5909L22.3111 7.60209L24.653 11.634Z" fill="#5277C3"></path>
<path fill-rule="evenodd" clip-rule="evenodd" d="M25.4418 25.6727L35.5531 8.16138L37.9139 12.1631L35.1888 16.853L40.6007 16.8672L41.7541 18.8668L40.5763 20.912L32.873 20.8877L30.1045 25.6606L25.4418 25.6727Z" fill="#5277C3"></path>
<path fill-rule="evenodd" clip-rule="evenodd" d="M12.9232 19.3409L23.0328 36.8532L18.3868 36.8968L15.6878 32.1919L12.9696 36.8716L10.6611 36.8707L9.47882 34.8281L13.3515 28.169L10.6024 23.385L12.9232 19.3409Z" fill="url(#paint0_linear_5849_3514)"></path>
<path fill-rule="evenodd" clip-rule="evenodd" d="M16.5721 12.1265L6.46082 29.6378L4.10009 25.6361L6.82514 20.9462L1.41322 20.932L0.259793 18.9324L1.4376 16.8872L9.14092 16.9115L11.9094 12.1386L16.5721 12.1265Z" fill="url(#paint1_linear_5849_3514)"></path>
<path fill-rule="evenodd" clip-rule="evenodd" d="M17.3475 26.1255L37.5684 26.1265L35.2832 30.1718L29.8591 30.1568L32.5527 34.8508L31.3977 36.8495L29.0376 36.8521L25.207 30.1686L19.6894 30.1574L17.3475 26.1255Z" fill="url(#paint2_linear_5849_3514)"></path>
<path fill-rule="evenodd" clip-rule="evenodd" d="M29.1164 18.4522L19.0068 0.939911L23.6528 0.896328L26.3518 5.60123L29.0701 0.921473L31.3785 0.92238L32.5609 2.965L28.6881 9.62411L31.4373 14.4081L29.1164 18.4522Z" fill="url(#paint3_linear_5849_3514)"></path>
<path fill-rule="evenodd" clip-rule="evenodd" d="M12.9232 19.3409L23.0328 36.8532L18.3868 36.8968L15.6878 32.1919L12.9696 36.8716L10.6611 36.8707L9.47882 34.8281L13.3515 28.169L10.6024 23.385L12.9232 19.3409Z" fill="url(#paint4_linear_5849_3514)"></path>
<path fill-rule="evenodd" clip-rule="evenodd" d="M24.6499 11.6277L4.42903 11.6267L6.71428 7.58141L12.1384 7.59644L9.4447 2.90247L10.5997 0.903772L12.9598 0.901171L16.7904 7.5846L22.3081 7.59579L24.6499 11.6277Z" fill="url(#paint5_linear_5849_3514)"></path>
<path fill-rule="evenodd" clip-rule="evenodd" d="M25.4451 25.6626L35.5564 8.1513L37.9171 12.1531L35.1921 16.8429L40.604 16.8571L41.7574 18.8567L40.5796 20.902L32.8763 20.8776L30.1078 25.6505L25.4451 25.6626Z" fill="url(#paint6_linear_5849_3514)"></path>
</g>
<defs>
<linearGradient id="paint0_linear_5849_3514" x1="9.75445" y1="19.8909" x2="17.1582" y2="32.6959" gradientUnits="userSpaceOnUse">
<stop stop-color="#699AD7"></stop>
<stop offset="0.243452" stop-color="#7EB1DD"></stop>
<stop offset="1" stop-color="#7EBAE4"></stop>
</linearGradient>
<linearGradient id="paint1_linear_5849_3514" x1="14.5114" y1="9.65727" x2="7.12379" y2="22.4716" gradientUnits="userSpaceOnUse">
<stop stop-color="#699AD7"></stop>
<stop offset="0.243452" stop-color="#7EB1DD"></stop>
<stop offset="1" stop-color="#7EBAE4"></stop>
</linearGradient>
<linearGradient id="paint2_linear_5849_3514" x1="16.2395" y1="29.1448" x2="31.0308" y2="29.1355" gradientUnits="userSpaceOnUse">
<stop stop-color="#699AD7"></stop>
<stop offset="0.243452" stop-color="#7EB1DD"></stop>
<stop offset="1" stop-color="#7EBAE4"></stop>
</linearGradient>
<linearGradient id="paint3_linear_5849_3514" x1="32.2852" y1="17.9022" x2="24.8815" y2="5.09718" gradientUnits="userSpaceOnUse">
<stop stop-color="#699AD7"></stop>
<stop offset="0.243452" stop-color="#7EB1DD"></stop>
<stop offset="1" stop-color="#7EBAE4"></stop>
</linearGradient>
<linearGradient id="paint4_linear_5849_3514" x1="10.5197" y1="19.4553" x2="17.792" y2="32.3101" gradientUnits="userSpaceOnUse">
<stop stop-color="#415E9A"></stop>
<stop offset="0.231686" stop-color="#4A6BAF"></stop>
<stop offset="1" stop-color="#5277C3"></stop>
</linearGradient>
<linearGradient id="paint5_linear_5849_3514" x1="25.7526" y1="9.48896" x2="10.9839" y2="9.35961" gradientUnits="userSpaceOnUse">
<stop stop-color="#415E9A"></stop>
<stop offset="0.231686" stop-color="#4A6BAF"></stop>
<stop offset="1" stop-color="#5277C3"></stop>
</linearGradient>
<linearGradient id="paint6_linear_5849_3514" x1="26.746" y1="27.6869" x2="34.2424" y2="14.9615" gradientUnits="userSpaceOnUse">
<stop stop-color="#415E9A"></stop>
<stop offset="0.231686" stop-color="#4A6BAF"></stop>
<stop offset="1" stop-color="#5277C3"></stop>
</linearGradient>
<clipPath id="clip0_5849_3514">
<rect width="41.5069" height="36" fill="white" transform="translate(0.246521 0.908203)"></rect>
</clipPath>
</defs>
</svg>